<svg width="160" height="160" viewBox="0 0 160 160" fill="none" xmlns="http://www.w3.org/2000/svg">
<path d="M22.2832 127.88C22.5099 127.88 22.6899 127.947 22.8232 128.08C22.9699 128.213 23.0432 128.387 23.0432 128.6V137.36C23.0432 137.56 22.9699 137.72 22.8232 137.84C22.6765 137.947 22.5032 138 22.3032 138C22.1032 138 21.9299 137.947 21.7832 137.84C21.6365 137.72 21.5632 137.56 21.5632 137.36V134.12C20.6699 134.68 19.6765 134.96 18.5832 134.96C17.7965 134.96 17.0899 134.787 16.4632 134.44C15.8365 134.08 15.3365 133.567 14.9632 132.9C14.6032 132.22 14.4232 131.413 14.4232 130.48V128.6C14.4232 128.373 14.4832 128.2 14.6032 128.08C14.7365 127.947 14.9165 127.88 15.1432 127.88C15.3699 127.88 15.5499 127.947 15.6832 128.08C15.8165 128.213 15.8832 128.387 15.8832 128.6V130.48C15.8832 131.4 16.1299 132.153 16.6232 132.74C17.1299 133.313 17.7899 133.6 18.6032 133.6C19.2032 133.6 19.7299 133.533 20.1832 133.4C20.6499 133.267 21.1099 133.027 21.5632 132.68V128.6C21.5632 128.373 21.6232 128.2 21.7432 128.08C21.8765 127.947 22.0565 127.88 22.2832 127.88ZM31.0938 127.68C31.7338 127.68 32.3338 127.807 32.8938 128.06C33.4672 128.313 33.9205 128.713 34.2538 129.26V128.6C34.2538 128.387 34.3138 128.213 34.4338 128.08C34.5672 127.947 34.7472 127.88 34.9738 127.88C35.1872 127.88 35.3605 127.947 35.4938 128.08C35.6405 128.213 35.7138 128.387 35.7138 128.6V137.28C35.7138 137.493 35.6472 137.667 35.5138 137.8C35.3805 137.933 35.2005 138 34.9738 138C34.7472 138 34.5672 137.94 34.4338 137.82C34.3138 137.687 34.2538 137.507 34.2538 137.28V136.42C33.9738 136.967 33.5205 137.4 32.8938 137.72C32.2805 138.04 31.6538 138.2 31.0138 138.2C30.0405 138.2 29.1672 137.987 28.3938 137.56C27.6205 137.133 27.0072 136.52 26.5538 135.72C26.1138 134.907 25.8938 133.96 25.8938 132.88C25.8938 131.773 26.1205 130.833 26.5738 130.06C27.0405 129.273 27.6672 128.68 28.4538 128.28C29.2538 127.88 30.1338 127.68 31.0938 127.68ZM31.0338 136.82C31.9538 136.793 32.7205 136.507 33.3338 135.96C33.9472 135.413 34.2538 134.673 34.2538 133.74V132.16C34.2538 131.2 33.9605 130.453 33.3738 129.92C32.7872 129.387 32.0205 129.1 31.0738 129.06C30.3005 129.047 29.6338 129.213 29.0738 129.56C28.5138 129.907 28.0872 130.373 27.7938 130.96C27.5005 131.547 27.3538 132.187 27.3538 132.88C27.3538 133.787 27.5538 134.533 27.9538 135.12C28.3672 135.707 28.8605 136.14 29.4338 136.42C30.0072 136.687 30.5405 136.82 31.0338 136.82ZM46.618 127.88C46.818 127.88 46.9847 127.94 47.118 128.06C47.2647 128.167 47.338 128.32 47.338 128.52V137.34C47.338 137.553 47.2647 137.72 47.118 137.84C46.9847 137.947 46.818 138 46.618 138C46.418 138 46.2447 137.947 46.098 137.84C45.9514 137.72 45.878 137.553 45.878 137.34V130.4L44.578 132.18L40.058 137.68C39.9247 137.893 39.7114 138 39.418 138C39.218 138 39.0447 137.947 38.898 137.84C38.7514 137.72 38.678 137.553 38.678 137.34V128.54C38.678 128.327 38.7514 128.167 38.898 128.06C39.0447 127.94 39.218 127.88 39.418 127.88C39.618 127.88 39.7847 127.94 39.918 128.06C40.0647 128.167 40.138 128.32 40.138 128.52V135.48L41.758 133.32L45.998 128.16L46.018 128.14C46.1514 127.967 46.3514 127.88 46.618 127.88ZM44.598 125.02C44.6247 124.873 44.678 124.76 44.758 124.68C44.8514 124.6 44.958 124.56 45.078 124.56C45.238 124.56 45.3714 124.627 45.478 124.76C45.598 124.88 45.6447 125.047 45.618 125.26C45.538 125.767 45.2647 126.18 44.798 126.5C44.3314 126.807 43.8314 126.96 43.298 126.96C42.7647 126.96 42.2647 126.807 41.798 126.5C41.3314 126.18 41.058 125.767 40.978 125.26C40.9514 125.047 40.9914 124.88 41.098 124.76C41.218 124.627 41.358 124.56 41.518 124.56C41.638 124.56 41.738 124.6 41.818 124.68C41.9114 124.76 41.9714 124.873 41.998 125.02C42.038 125.26 42.1714 125.453 42.398 125.6C42.6247 125.747 42.9247 125.82 43.298 125.82C43.6714 125.82 43.9714 125.747 44.198 125.6C44.4247 125.453 44.558 125.26 44.598 125.02ZM58.2332 127.88C58.4332 127.88 58.5999 127.947 58.7332 128.08C58.8665 128.2 58.9332 128.373 58.9332 128.6V137.26C58.9332 137.487 58.8532 137.667 58.6932 137.8C58.5465 137.933 58.3732 138 58.1732 138C57.9865 138 57.8265 137.94 57.6932 137.82C57.5599 137.687 57.4932 137.5 57.4932 137.26V133.28H51.4532V137.26C51.4532 137.5 51.3865 137.687 51.2532 137.82C51.1199 137.94 50.9599 138 50.7732 138C50.5732 138 50.3932 137.933 50.2332 137.8C50.0865 137.667 50.0132 137.487 50.0132 137.26V128.6C50.0132 128.373 50.0799 128.2 50.2132 128.08C50.3465 127.947 50.5132 127.88 50.7132 127.88C50.9132 127.88 51.0865 127.947 51.2332 128.08C51.3799 128.213 51.4532 128.387 51.4532 128.6V132.02H57.4932V128.6C57.4932 128.387 57.5665 128.213 57.7132 128.08C57.8599 127.947 58.0332 127.88 58.2332 127.88ZM68.1055 127.68C68.7455 127.68 69.3455 127.807 69.9055 128.06C70.4789 128.313 70.9322 128.713 71.2655 129.26V128.6C71.2655 128.387 71.3255 128.213 71.4455 128.08C71.5789 127.947 71.7589 127.88 71.9855 127.88C72.1989 127.88 72.3722 127.947 72.5055 128.08C72.6522 128.213 72.7255 128.387 72.7255 128.6V137.28C72.7255 137.493 72.6589 137.667 72.5255 137.8C72.3922 137.933 72.2122 138 71.9855 138C71.7589 138 71.5789 137.94 71.4455 137.82C71.3255 137.687 71.2655 137.507 71.2655 137.28V136.42C70.9855 136.967 70.5322 137.4 69.9055 137.72C69.2922 138.04 68.6655 138.2 68.0255 138.2C67.0522 138.2 66.1789 137.987 65.4055 137.56C64.6322 137.133 64.0189 136.52 63.5655 135.72C63.1255 134.907 62.9055 133.96 62.9055 132.88C62.9055 131.773 63.1322 130.833 63.5855 130.06C64.0522 129.273 64.6789 128.68 65.4655 128.28C66.2655 127.88 67.1455 127.68 68.1055 127.68ZM68.0455 136.82C68.9655 136.793 69.7322 136.507 70.3455 135.96C70.9589 135.413 71.2655 134.673 71.2655 133.74V132.16C71.2655 131.2 70.9722 130.453 70.3855 129.92C69.7989 129.387 69.0322 129.1 68.0855 129.06C67.3122 129.047 66.6455 129.213 66.0855 129.56C65.5255 129.907 65.0989 130.373 64.8055 130.96C64.5122 131.547 64.3655 132.187 64.3655 132.88C64.3655 133.787 64.5655 134.533 64.9655 135.12C65.3789 135.707 65.8722 136.14 66.4455 136.42C67.0189 136.687 67.5522 136.82 68.0455 136.82ZM83.8498 127.88C84.0498 127.88 84.2164 127.94 84.3498 128.06C84.4964 128.167 84.5698 128.32 84.5698 128.52V137.34C84.5698 137.553 84.4964 137.72 84.3498 137.84C84.2164 137.947 84.0498 138 83.8498 138C83.6498 138 83.4764 137.947 83.3298 137.84C83.1831 137.72 83.1098 137.553 83.1098 137.34V134.28H80.3898L77.4898 137.7C77.3164 137.913 77.1164 138.02 76.8898 138.02C76.7031 138.02 76.5364 137.953 76.3898 137.82C76.2564 137.687 76.1898 137.52 76.1898 137.32C76.1898 137.12 76.2764 136.927 76.4498 136.74L78.6898 134.18C76.9164 133.847 76.0298 132.887 76.0298 131.3C76.0298 130.66 76.1831 130.087 76.4898 129.58C76.8098 129.06 77.2831 128.647 77.9098 128.34C78.5364 128.033 79.2964 127.88 80.1898 127.88H83.8498ZM83.1098 129.12H80.1698C79.2764 129.12 78.6031 129.32 78.1498 129.72C77.7098 130.107 77.4898 130.653 77.4898 131.36C77.4898 131.96 77.6831 132.4 78.0698 132.68C78.4698 132.947 79.1698 133.08 80.1698 133.08H83.1098V129.12ZM94.5447 123.624C94.5447 123.336 94.6327 123.12 94.8087 122.976C94.9847 122.816 95.1927 122.736 95.4327 122.736C95.6887 122.736 95.9047 122.816 96.0807 122.976C96.2567 123.12 96.3447 123.336 96.3447 123.624V137.16C96.3447 137.416 96.2487 137.624 96.0567 137.784C95.8807 137.928 95.6727 138 95.4327 138C95.1927 138 94.9847 137.928 94.8087 137.784C94.6327 137.64 94.5447 137.432 94.5447 137.16V123.624ZM101.738 137.16C101.738 137.416 101.65 137.624 101.474 137.784C101.298 137.928 101.09 138 100.85 138C100.626 138 100.426 137.928 100.25 137.784C100.074 137.64 99.9861 137.44 99.9861 137.184V123.576C99.9861 123.32 100.066 123.12 100.226 122.976C100.386 122.816 100.602 122.736 100.874 122.736H106.562C107.906 122.736 109.042 122.968 109.97 123.432C110.914 123.88 111.626 124.496 112.106 125.28C112.586 126.064 112.826 126.936 112.826 127.896C112.826 129.144 112.474 130.176 111.77 130.992C111.066 131.808 109.994 132.336 108.554 132.576L112.226 136.536C112.434 136.744 112.538 136.96 112.538 137.184C112.538 137.408 112.45 137.6 112.274 137.76C112.098 137.92 111.898 138 111.674 138C111.434 138 111.218 137.896 111.026 137.688L106.394 132.672H101.738V137.16ZM106.586 131.16C108.058 131.16 109.17 130.864 109.922 130.272C110.674 129.68 111.05 128.92 111.05 127.992C111.034 126.936 110.626 126.064 109.826 125.376C109.026 124.688 107.946 124.344 106.586 124.344H101.738V131.16H106.586ZM123.115 138.24C121.659 138.24 120.339 137.912 119.155 137.256C117.987 136.6 117.059 135.656 116.371 134.424C115.683 133.192 115.339 131.752 115.339 130.104C115.339 128.424 115.731 127.016 116.515 125.88C117.299 124.728 118.275 123.88 119.443 123.336C120.611 122.776 121.771 122.496 122.923 122.496C124.091 122.496 125.283 122.776 126.499 123.336C127.715 123.88 128.731 124.728 129.547 125.88C130.379 127.016 130.795 128.424 130.795 130.104C130.795 131.72 130.443 133.144 129.739 134.376C129.035 135.608 128.099 136.56 126.931 137.232C125.763 137.904 124.491 138.24 123.115 138.24ZM117.139 130.176C117.139 131.456 117.395 132.584 117.907 133.56C118.435 134.536 119.155 135.288 120.067 135.816C120.979 136.344 121.995 136.608 123.115 136.608C124.203 136.608 125.195 136.352 126.091 135.84C126.987 135.312 127.699 134.568 128.227 133.608C128.755 132.632 129.019 131.488 129.019 130.176C129.019 128.816 128.699 127.68 128.059 126.768C127.435 125.84 126.659 125.168 125.731 124.752C124.803 124.32 123.883 124.104 122.971 124.104C122.059 124.104 121.155 124.312 120.259 124.728C119.379 125.128 118.635 125.784 118.027 126.696C117.435 127.608 117.139 128.768 117.139 130.176ZM144.67 129.624V123.6C144.67 123.328 144.758 123.12 144.934 122.976C145.11 122.816 145.318 122.736 145.558 122.736C145.798 122.736 145.998 122.816 146.158 122.976C146.334 123.12 146.422 123.328 146.422 123.6V137.088C146.422 137.376 146.334 137.6 146.158 137.76C145.982 137.92 145.774 138 145.534 138C145.294 138 145.086 137.92 144.91 137.76C144.75 137.6 144.67 137.376 144.67 137.088V131.136H135.838V137.112C135.838 137.4 135.758 137.624 135.598 137.784C135.438 137.928 135.246 138 135.022 138C134.782 138 134.566 137.92 134.374 137.76C134.198 137.6 134.11 137.384 134.11 137.112V123.6C134.11 123.328 134.19 123.12 134.35 122.976C134.526 122.816 134.726 122.736 134.95 122.736C135.19 122.736 135.398 122.816 135.574 122.976C135.75 123.136 135.838 123.344 135.838 123.6V129.624H144.67Z" fill="#000008"/>
<path d="M123.391 37.0001H91.25C90.4544 37.0001 89.6792 37.3203 89.1351 37.9008C74.9941 52.9894 82.7234 69.6264 89.1477 77.0521C89.6849 77.673 90.4721 78.0001 91.2931 78.0001H123.265C124.06 78.0001 124.837 77.6772 125.384 77.0997C141.141 60.4713 132.434 44.4759 125.332 37.7468C124.809 37.2516 124.111 37.0001 123.391 37.0001Z" fill="#000008"/>
<path d="M119.977 29.0001H95.416C94.6093 29.0001 94.1744 28.1218 94.7472 27.5538C96.5107 25.8051 99.5849 23.6891 103.792 22.8589C104.275 21.5356 105.383 20 107.507 20C109.629 20 110.736 21.5312 111.221 22.8532C115.48 23.6742 118.714 25.7751 120.621 27.5216C121.233 28.0819 120.806 29.0001 119.977 29.0001Z" fill="#000008"/>
<path d="M73.6162 66.1376C70.658 58.9961 73.314 49.4765 75.7996 43.9721C76.1075 43.2903 75.6187 42.5001 74.8706 42.5001H68.0075C63.0075 42.5001 59.5075 40.0001 60.0075 45.5001C60.4075 49.9001 63.8408 50.6668 65.5074 50.5001C65.2323 58.7514 68.724 64.3235 72.1786 67.5414C72.9864 68.2939 74.0387 67.1576 73.6162 66.1376Z" fill="#000008"/>
<path d="M141.5 66.3235C145.431 60.782 143.021 51.386 140.907 46.3987C140.805 46.1599 141.089 45.9445 141.289 46.1088C150.163 53.3724 146.253 63.1558 141.798 66.668C141.575 66.8436 141.336 66.5548 141.5 66.3235Z" fill="#000008"/>
<path d="M51.5074 60.5001C57.1954 60.5001 53.5627 72.3485 51.9821 76.7396C51.7051 77.5091 50.9711 78.0001 50.1533 78.0001H37.2574H24.9682C23.7769 78.0001 22.6893 77.2888 22.2385 76.186C16.7273 62.7047 20.3394 59.9645 23.0074 60.5001H51.5074Z" fill="#000008"/>
<path d="M142.507 86.5001H16.5073C13.9598 86.6908 12.9007 89.6513 13.0073 91.0001V106C13.0073 108.4 15.3406 109.333 16.5073 109.5C22.0073 109.5 33.3258 109.71 34.5073 109.5C35.8971 109.253 37.5164 107.101 38.0073 106L42.223 96.3039C42.6992 95.2086 43.7798 94.5001 44.9742 94.5001H115.46C116.695 94.5001 117.803 95.2569 118.253 96.4069L122.007 106C122.934 109.195 125.241 109.44 126.507 109.5H143.507C145.907 109.5 146.841 107.167 147.007 106C147.007 103.167 146.93 96.1995 147.007 91.0001C147.065 87.0907 144.056 86.894 142.507 86.5001Z" fill="#000008"/>
</svg>
