<svg width="160" height="160" viewBox="0 0 160 160" fill="none" xmlns="http://www.w3.org/2000/svg">
<path d="M122.384 50.0001H90.2427C89.4471 50.0001 88.6719 50.3203 88.1278 50.9008C73.9868 65.9894 81.7161 82.6264 88.1404 90.0521C88.6776 90.673 89.4647 91.0001 90.2858 91.0001H122.257C123.053 91.0001 123.83 90.6772 124.377 90.0997C140.134 73.4713 131.427 57.4759 124.325 50.7468C123.802 50.2516 123.104 50.0001 122.384 50.0001Z" fill="white"/>
<path d="M118.969 42.0001H94.4087C93.602 42.0001 93.1671 41.1218 93.7399 40.5538C95.5034 38.8051 98.5776 36.6891 102.785 35.8589C103.268 34.5356 104.376 33 106.5 33C108.622 33 109.729 34.5312 110.214 35.8532C114.473 36.6742 117.707 38.7751 119.614 40.5216C120.226 41.0819 119.799 42.0001 118.969 42.0001Z" fill="white"/>
<path d="M72.6088 79.1376C69.6507 71.9961 72.3067 62.4765 74.7923 56.9721C75.1002 56.2903 74.6114 55.5001 73.8633 55.5001H67.0002C62.0002 55.5001 58.5002 53.0001 59.0002 58.5001C59.4002 62.9001 62.8334 63.6668 64.5 63.5001C64.225 71.7514 67.7167 77.3235 71.1713 80.5414C71.9791 81.2939 73.0313 80.1576 72.6088 79.1376Z" fill="white"/>
<path d="M140.493 79.3235C144.424 73.782 142.013 64.386 139.899 59.3987C139.798 59.1599 140.081 58.9445 140.282 59.1088C149.155 66.3724 145.246 76.1558 140.791 79.668C140.568 79.8436 140.328 79.5548 140.493 79.3235Z" fill="white"/>
<path d="M50.5 73.5001C56.1881 73.5001 52.5554 85.3485 50.9748 89.7396C50.6978 90.5091 49.9638 91.0001 49.146 91.0001H36.25H23.9609C22.7696 91.0001 21.682 90.2888 21.2312 89.186C15.72 75.7047 19.3321 72.9645 22 73.5001H50.5Z" fill="white"/>
<path d="M141.5 99.5001H15.5C12.9525 99.6908 11.8934 102.651 12 104V119C12 121.4 14.3333 122.333 15.5 122.5C21 122.5 32.3185 122.71 33.5 122.5C34.8898 122.253 36.5091 120.101 37 119L41.2157 109.304C41.6919 108.209 42.7725 107.5 43.9669 107.5H114.452C115.687 107.5 116.796 108.257 117.246 109.407L121 119C121.927 122.195 124.234 122.44 125.5 122.5H142.5C144.9 122.5 145.833 120.167 146 119C146 116.167 145.923 109.2 146 104C146.058 100.091 143.049 99.894 141.5 99.5001Z" fill="white"/>
</svg>
